<?xml version="1.0" encoding="utf-8"?>
<!-- Generator: Adobe Illustrator 16.0.0, SVG Export Plug-In . SVG Version: 6.00 Build 0)  -->
<!DOCTYPE svg PUBLIC "-//W3C//DTD SVG 1.1//EN" "http://www.w3.org/Graphics/SVG/1.1/DTD/svg11.dtd">
<svg version="1.1" id="Layer_1" xmlns="http://www.w3.org/2000/svg" xmlns:xlink="http://www.w3.org/1999/xlink" x="0px" y="0px"
	 width="433px" height="306px" viewBox="0 0 433 306" enable-background="new 0 0 433 306" xml:space="preserve">
<g>
	<path fill-rule="evenodd" clip-rule="evenodd" fill="#33449C" d="M213.596,298.527c-1.124-0.883-2.203-1.832-3.378-2.64
		c-10.494-7.212-21.003-14.4-31.51-21.593c-18.597-12.73-37.194-25.46-55.792-38.189c-17.153-11.741-34.306-23.482-51.458-35.223
		c-18.597-12.73-37.194-25.46-55.792-38.189c-2.942-2.014-5.882-4.03-8.834-6.028c-0.44-0.298-0.943-0.502-1.417-0.749
		c0-0.128,0-0.255,0-0.382c1.589-1.058,3.195-2.089,4.765-3.175c26.996-18.668,53.993-37.336,80.979-56.019
		c29.422-20.369,58.833-40.752,88.249-61.13c10.834-7.505,21.67-15.008,32.497-22.524c0.54-0.375,1.003-0.86,1.502-1.293
		c0.318,0,0.637,0,0.956,0c0.152,0.147,0.286,0.321,0.458,0.438c10.03,6.822,20.055,13.65,30.098,20.454
		c12.81,8.679,25.633,17.338,38.451,26.004c9.943,6.722,19.89,13.441,29.834,20.163c12.37,8.362,24.739,16.726,37.11,25.087
		c8.415,5.687,16.834,11.367,25.248,17.054c13.242,8.95,26.482,17.901,39.723,26.854c3.956,2.675,7.908,5.356,11.863,8.032
		c0.049,0.033,0.116,0.037,0.176,0.056c0,0.127,0,0.254,0,0.382c-0.375,0.224-0.762,0.431-1.124,0.674
		c-10.462,6.979-20.922,13.961-31.381,20.945c-14.033,9.369-28.065,18.74-42.098,28.112c-8.763,5.853-17.523,11.709-26.286,17.562
		c-12.709,8.487-25.42,16.972-38.129,25.46c-11.913,7.957-23.827,15.914-35.737,23.876c-12.334,8.245-24.666,16.493-36.991,24.752
		c-0.513,0.345-0.94,0.818-1.407,1.23C213.978,298.527,213.787,298.527,213.596,298.527z M13.815,155.697
		c0.494,0.352,0.825,0.596,1.164,0.827c1.97,1.351,3.942,2.697,5.913,4.046c17.524,11.995,35.049,23.989,52.574,35.984
		c15.869,10.863,31.738,21.726,47.607,32.59c15.631,10.702,31.262,21.403,46.89,32.109c13.895,9.52,27.785,19.045,41.678,28.568
		c1.024,0.702,2.058,1.391,3.077,2.1c0.833,0.579,1.649,0.587,2.475-0.004c0.181-0.129,0.372-0.245,0.557-0.369
		c2.512-1.686,5.021-3.376,7.534-5.059c10.955-7.33,21.908-14.663,32.867-21.988c14.797-9.891,29.598-19.776,44.398-29.662
		c13.159-8.79,26.321-17.577,39.481-26.365c14.14-9.441,28.28-18.883,42.42-28.325c11.889-7.938,23.776-15.879,35.665-23.819
		c0.282-0.188,0.558-0.385,0.925-0.638c-0.436-0.319-0.758-0.57-1.095-0.798c-12.688-8.578-25.375-17.154-38.064-25.729
		c-8.441-5.705-16.886-11.406-25.326-17.111c-12.504-8.451-25.006-16.905-37.51-25.356c-9.496-6.418-18.995-12.834-28.491-19.252
		c-12.293-8.309-24.585-16.618-36.876-24.93c-7.49-5.065-14.977-10.136-22.466-15.202c-4.615-3.122-9.23-6.244-13.851-9.358
		c-1.321-0.891-1.567-0.876-2.904,0.05c-1.151,0.798-2.299,1.602-3.451,2.4c-25.149,17.428-50.298,34.858-75.45,52.284
		c-26.906,18.64-53.814,37.276-80.721,55.914c-12.486,8.648-24.971,17.296-37.455,25.947
		C14.891,154.89,14.418,155.254,13.815,155.697z"/>
	<path fill-rule="evenodd" clip-rule="evenodd" fill="#33449C" d="M22.136,155.626c0.512-0.375,0.935-0.701,1.374-1.005
		c23.165-16.044,46.331-32.086,69.496-48.13c30.914-21.411,61.828-42.82,92.738-64.235c8.925-6.184,17.835-12.387,26.753-18.582
		c1.352-0.938,1.907-0.955,3.287-0.022c8.863,5.99,17.724,11.987,26.584,17.98c8.176,5.53,16.352,11.061,24.528,16.589
		c12.607,8.524,25.215,17.049,37.825,25.571c10.604,7.167,21.215,14.326,31.819,21.493c12.979,8.772,25.952,17.551,38.93,26.325
		c10.393,7.026,20.788,14.048,31.181,21.073c1.397,0.944,2.787,1.898,4.306,2.935c-0.379,0.269-0.666,0.483-0.964,0.683
		c-9.854,6.574-19.71,13.144-29.561,19.721c-12.949,8.646-25.894,17.298-38.841,25.945c-8.155,5.447-16.313,10.892-24.468,16.339
		c-16.098,10.753-32.196,21.505-48.293,32.261c-11.595,7.748-23.188,15.501-34.78,23.253c-6.061,4.054-12.119,8.11-18.179,12.165
		c-0.185,0.124-0.373,0.245-0.556,0.372c-0.806,0.561-1.59,0.521-2.39-0.035c-1.543-1.071-3.1-2.123-4.649-3.185
		c-22.565-15.454-45.129-30.91-67.694-46.363c-21.883-14.986-43.766-29.971-65.65-44.955c-17.024-11.656-34.05-23.309-51.074-34.966
		C23.309,156.477,22.773,156.081,22.136,155.626z M392.275,155.568c-0.494-0.347-0.852-0.605-1.217-0.853
		c-14.508-9.806-29.017-19.61-43.525-29.416c-13.295-8.986-26.59-17.972-39.884-26.958c-15.959-10.787-31.919-21.573-47.875-32.363
		c-14.559-9.845-29.114-19.696-43.671-29.544c-1.775-1.201-1.992-1.201-3.728,0.002c-17.192,11.917-34.383,23.838-51.578,35.75
		c-26.774,18.549-53.552,37.092-80.327,55.639c-13.009,9.011-26.016,18.024-39.023,27.037c-0.305,0.211-0.602,0.434-0.975,0.703
		c0.485,0.351,0.862,0.636,1.252,0.902c18.782,12.863,37.564,25.727,56.349,38.588c24.721,16.927,49.444,33.85,74.165,50.777
		c13.372,9.156,26.741,18.316,40.109,27.479c1.709,1.171,2.01,1.183,3.751,0.018c8.151-5.453,16.298-10.91,24.451-16.361
		c12.122-8.106,24.245-16.211,36.37-24.313c12.072-8.066,24.146-16.13,36.22-24.193c14.218-9.496,28.436-18.992,42.655-28.486
		c11.625-7.762,23.252-15.521,34.877-23.284C391.173,156.357,391.66,156.001,392.275,155.568z"/>
	<path fill-rule="evenodd" clip-rule="evenodd" fill="#33449C" d="M276.267,80.47c0,0.454,0,0.835,0,1.217
		c0,9.335,0.008,18.669-0.002,28.004c-0.013,12.201-0.038,24.402-0.062,36.603c-0.018,8.728-0.049,17.457-0.063,26.185
		c-0.017,11.469-0.021,22.938-0.034,34.407c-0.008,7.327-0.028,14.654-0.018,21.981c0.001,0.605-0.152,0.997-0.665,1.345
		c-1.153,0.784-2.261,1.636-3.457,2.51c-0.305-0.763-0.58-1.437-0.844-2.114c-5.383-13.819-10.469-27.749-15.433-41.723
		c-6.657-18.74-13.238-37.507-19.817-56.275c-3.146-8.978-6.212-17.985-9.316-26.978c-0.088-0.254-0.207-0.497-0.495-0.729
		c-0.023,0.259-0.066,0.518-0.066,0.777c0.001,0.956,0.023,1.911,0.024,2.866c0.013,9.621,0.018,19.243,0.035,28.863
		c0.011,5.542,0.041,11.085,0.063,16.627c0.021,5.064,0.047,10.128,0.061,15.192c0.018,5.989,0.022,11.979,0.034,17.968
		c0.01,5.415,0.017,10.831,0.033,16.247c0.016,5.638,0.041,11.276,0.063,16.914c0.021,5.446,0.046,10.894,0.063,16.34
		c0.024,8.314,0.035,16.629,0.079,24.943c0.004,0.711-0.186,1.134-0.805,1.538c-3.919,2.559-7.804,5.168-11.701,7.76
		c-0.127,0.085-0.266,0.151-0.408,0.231c-0.201-0.734-0.246-230.647-0.04-231.798c0.815,0.662,1.611,1.276,2.362,1.94
		c0.197,0.174,0.275,0.495,0.375,0.761c3.063,8.061,6.234,16.083,9.155,24.195c5.952,16.524,11.767,33.098,17.64,49.651
		c5.618,15.834,11.291,31.648,17.394,47.303c1.214,3.113,2.46,6.215,3.696,9.319c0.126,0.317,0.284,0.623,0.424,0.927
		c0.09-0.03,0.12-0.037,0.146-0.051s0.066-0.03,0.07-0.051c0.018-0.094,0.031-0.189,0.034-0.284c0.006-0.19,0.004-0.382,0.004-0.573
		c0.002-32.815,0.004-65.63,0.007-98.445c0-0.063,0.015-0.126,0.028-0.188c0.006-0.027,0.026-0.051,0.101-0.185
		C268.691,75.941,272.446,78.187,276.267,80.47z"/>
	<path fill-rule="evenodd" clip-rule="evenodd" fill="#33449C" d="M209.416,42.44c0,74.421,0,148.689,0,223.089
		c-0.312-0.186-0.55-0.308-0.769-0.46c-10.19-7.096-20.379-14.195-30.569-21.292c-13.222-9.206-26.438-18.422-39.679-27.6
		c-1.117-0.774-1.577-1.669-1.576-3.018c0.022-38.103,0.018-76.205,0.018-114.307c0-0.191,0.003-0.382,0.001-0.573
		c-0.009-0.964,0.39-1.675,1.179-2.262c4.269-3.172,8.514-6.376,12.767-9.571c17.467-13.124,34.934-26.248,52.4-39.372
		c1.68-1.263,3.357-2.53,5.039-3.792C208.577,43.021,208.94,42.776,209.416,42.44z M197.901,243.432c0-59.331,0-118.5,0-177.838
		c-0.489,0.342-0.876,0.596-1.246,0.874c-15.545,11.701-31.083,23.411-46.646,35.089c-1.103,0.827-1.592,1.761-1.588,3.136
		c0.023,9.237-0.011,18.475-0.013,27.712c-0.004,25.006,0.003,50.011-0.018,75.017c-0.001,1.103,0.358,1.854,1.262,2.482
		c15.792,10.972,31.571,21.962,47.354,32.946C197.261,243.027,197.526,243.188,197.901,243.432z"/>
	<path fill-rule="evenodd" clip-rule="evenodd" fill="#33449C" d="M61.801,162.248c-0.038-0.277-0.083-0.462-0.084-0.646
		c-0.03-4.173-0.044-8.346-0.097-12.518c-0.007-0.49,0.268-0.674,0.571-0.897c2.668-1.962,5.337-3.923,8.006-5.885
		c19.809-14.563,39.617-29.126,59.426-43.688c0.357-0.262,0.722-0.514,1.17-0.832c0.05,0.275,0.118,0.472,0.118,0.667
		c0.006,4.62-0.008,9.24,0.021,13.859c0.003,0.581-0.276,0.857-0.681,1.145c-5.013,3.556-10.012,7.132-15.032,10.677
		c-10.586,7.477-21.184,14.938-31.775,22.406c-0.425,0.3-0.839,0.616-1.258,0.924c0.029,0.067,0.058,0.135,0.087,0.202
		c16.004,0,32.008,0,48.073,0c0,22.569,0,45.045,0,67.522c-0.678-0.211-61.017-41.624-62.312-42.781
		c2.146-3.129,4.299-6.269,6.497-9.473c14.731,10.146,29.407,20.252,44.105,30.375c0.208-0.769,0.283-29.374,0.092-31.058
		C99.768,162.248,80.796,162.248,61.801,162.248z"/>
	<path fill-rule="evenodd" clip-rule="evenodd" fill="#33449C" d="M353.371,157.897c0,0.925,0,1.624,0,2.323
		c0,3.567-0.016,7.136,0.016,10.703c0.005,0.647-0.197,1.029-0.737,1.39c-8.555,5.708-17.096,11.437-25.637,17.164
		c-7.695,5.159-15.388,10.323-23.082,15.484c-0.338,0.227-0.683,0.443-1.041,0.676c-0.233-0.781-0.338-102.285-0.13-105.021
		c0.705,0.177,8.145,5.03,11.374,7.428c0,25.252,0,50.564,0,76.087c1.469-0.892,2.716-1.8,4.001-2.645
		c1.304-0.858,2.592-1.737,3.889-2.605c1.297-0.866,2.599-1.728,3.895-2.596c1.297-0.867,2.59-1.739,3.886-2.608
		c1.321-0.888,2.644-1.773,3.966-2.66c1.296-0.869,2.59-1.74,3.887-2.607c1.298-0.866,2.6-1.726,3.896-2.594
		c1.297-0.867,2.59-1.741,3.885-2.61c1.295-0.87,2.592-1.737,3.888-2.604C350.613,159.739,351.903,158.879,353.371,157.897z"/>
	<path fill-rule="evenodd" clip-rule="evenodd" fill="#33449C" d="M283.343,88.293c3.882,2.442,7.586,4.773,11.308,7.115
		c0,0.389,0,0.738,0,1.087c0,39.602-0.002,79.204,0.019,118.807c0.001,0.798-0.22,1.247-0.919,1.659
		c-3.044,1.793-6.049,3.654-9.068,5.489c-0.379,0.23-0.761,0.455-1.122,0.671c-0.064-0.023-0.098-0.03-0.123-0.047
		c-0.022-0.016-0.049-0.041-0.054-0.066c-0.018-0.093-0.039-0.188-0.039-0.281C283.343,177.997,283.343,133.267,283.343,88.293z"/>
</g>
</svg>
